# xmcd
#
# Track frame offsets:
#	150
#	14883
#	31190
#	47100
#	59020
#	79120
#	97198
#	107830
#	122758
#	139428
#	158410
#	174533
#	186885
#
# Disc length: 2561 seconds
#
# Revision: 0
# Processed by: cddbd v1.4PL0 Copyright (c) Steve Scherf et al.
# Submitted via: dBpowerAMP V4.0
#
DISCID=b809ff0d
DTITLE=E-76 - Heilt Texas
DYEAR=1994
DGENRE=C&W
TTITLE0=Kvinnfolk er det nok av
TTITLE1=Odelsguten
TTITLE2=Grautegramsar
TTITLE3=Å grava te seg
TTITLE4=Fjellet syng
TTITLE5=Den gong
TTITLE6=Reiskapskaup
TTITLE7=Texas
TTITLE8=På post
TTITLE9=Sokkesig
TTITLE10=Stille vatn
TTITLE11=Småbrukar'n Knut
TTITLE12=Knut "sann"
EXTD=
EXTT0=
EXTT1=
EXTT2=
EXTT3=
EXTT4=
EXTT5=
EXTT6=
EXTT7=
EXTT8=
EXTT9=
EXTT10=
EXTT11=
EXTT12=
PLAYORDER=
